<svg width="16" height="16" viewBox="0 0 16 16" fill="none" xmlns="http://www.w3.org/2000/svg">
<g clip-path="url(#clip0_513_261)">
<path d="M12.6667 4.6665H3.33333C2.59695 4.6665 2 5.26346 2 5.99984V11.9998C2 12.7362 2.59695 13.3332 3.33333 13.3332H12.6667C13.403 13.3332 14 12.7362 14 11.9998V5.99984C14 5.26346 13.403 4.6665 12.6667 4.6665Z" stroke="#758BFF" stroke-width="1.5" stroke-linecap="round" stroke-linejoin="round"/>
<path d="M5.33301 4.66667V3.33333C5.33301 2.97971 5.47348 2.64057 5.72353 2.39052C5.97358 2.14048 6.31272 2 6.66634 2H9.33301C9.68663 2 10.0258 2.14048 10.2758 2.39052C10.5259 2.64057 10.6663 2.97971 10.6663 3.33333V4.66667" stroke="#758BFF" stroke-width="1.5" stroke-linecap="round" stroke-linejoin="round"/>
<path d="M8 8V8.00667" stroke="#758BFF" stroke-width="1.5" stroke-linecap="round" stroke-linejoin="round"/>
<path d="M2 8.6665C3.86105 9.60429 5.91602 10.0928 8 10.0928C10.084 10.0928 12.1389 9.60429 14 8.6665" stroke="#758BFF" stroke-width="1.5" stroke-linecap="round" stroke-linejoin="round"/>
</g>
<defs>
<clipPath id="clip0_513_261">
<rect width="16" height="16" fill="white"/>
</clipPath>
</defs>
</svg>
