<svg width="15" height="15" viewBox="0 0 15 15" fill="none" xmlns="http://www.w3.org/2000/svg">
<g id="ion:language-sharp">
<path id="Vector" d="M10.6348 5.15625L7.20703 13.5938H8.59102L9.3085 11.8945H11.961L12.6785 13.5938H14.0625L10.6348 5.15625ZM9.85283 10.6055L10.6348 8.19873L11.4167 10.6055H9.85283ZM7.96875 9.375C7.96143 9.36943 7.36553 8.91299 6.63809 8.1249C7.79766 6.55342 8.45449 4.76719 8.72256 3.92578H10.3125V2.63672H6.26953V1.40625H4.98047V2.63672H0.9375V3.92578H7.36084C7.08193 4.71533 6.56836 5.96191 5.78496 7.10039C4.82754 5.82773 4.40391 4.87734 4.39834 4.86738L4.18945 4.45312L3.07617 5.09766L3.27744 5.50371C3.30352 5.54941 3.78105 6.61406 4.88027 8.03994C4.90723 8.07539 4.93447 8.10996 4.96172 8.14453C3.50508 9.81035 2.3499 10.4616 2.33496 10.4728L1.875 10.7812L2.54883 11.8359L3.11426 11.4999C3.17871 11.451 4.3251 10.7968 5.80957 9.1333C6.52793 9.90322 7.07578 10.3295 7.10742 10.3541L7.4707 10.6055L7.96875 9.375Z" fill="#FFBA55"/>
</g>
</svg>
