<svg width="16" height="16" viewBox="0 0 16 16" fill="none" xmlns="http://www.w3.org/2000/svg">
<g id="Vector">
<path d="M3.8125 9.125H12.5625H3.8125ZM8.1875 9.125V15.6875V9.125ZM4.75 7.5625V4.75H4.0175C3.60127 4.75 3.19687 4.8885 2.86804 5.14368C2.5392 5.39885 2.30461 5.75618 2.20125 6.15938L1 10.8438V11H5.375V11.9375C5.375 12.875 5.375 13.5 5.84375 14.4375C5.84375 14.4375 6.3125 15.375 6.9375 15.375M11.625 7.5625V4.75H12.3575C12.7737 4.75 13.1781 4.8885 13.507 5.14368C13.8358 5.39885 14.0704 5.75618 14.1737 6.15938L15.375 10.8438V11H11V11.9375C11 12.875 11 13.5 10.5312 14.4375C10.5312 14.4375 10.0625 15.375 9.4375 15.375M4.65625 3.5C4.65625 3.5 3.65625 2.875 3.65625 2.09375C3.65625 1.804 3.77135 1.52612 3.97624 1.32124C4.18112 1.11635 4.459 1.00125 4.74875 1.00125C5.0385 1.00125 5.31638 1.11635 5.52126 1.32124C5.72615 1.52612 5.84125 1.804 5.84125 2.09375C5.84125 2.875 4.84375 3.5 4.84375 3.5H4.65625ZM11.7188 3.5C11.7188 3.5 12.7188 2.875 12.7188 2.09375C12.7188 1.80367 12.6035 1.52547 12.3984 1.32035C12.1933 1.11523 11.9151 1 11.625 1C11.0212 1 10.5337 1.49 10.5337 2.09375C10.5337 2.875 11.5312 3.5 11.5312 3.5H11.7188Z" fill="#FFBA55"/>
<path d="M3.8125 9.125H12.5625M8.1875 9.125V15.6875M4.75 7.5625V4.75H4.0175C3.60127 4.75 3.19687 4.8885 2.86804 5.14368C2.5392 5.39885 2.30461 5.75618 2.20125 6.15938L1 10.8438V11H5.375V11.9375C5.375 12.875 5.375 13.5 5.84375 14.4375C5.84375 14.4375 6.3125 15.375 6.9375 15.375M11.625 7.5625V4.75H12.3575C12.7737 4.75 13.1781 4.8885 13.507 5.14368C13.8358 5.39885 14.0704 5.75618 14.1737 6.15938L15.375 10.8438V11H11V11.9375C11 12.875 11 13.5 10.5312 14.4375C10.5312 14.4375 10.0625 15.375 9.4375 15.375M4.65625 3.5C4.65625 3.5 3.65625 2.875 3.65625 2.09375C3.65625 1.804 3.77135 1.52612 3.97624 1.32124C4.18112 1.11635 4.459 1.00125 4.74875 1.00125C5.0385 1.00125 5.31638 1.11635 5.52126 1.32124C5.72615 1.52612 5.84125 1.804 5.84125 2.09375C5.84125 2.875 4.84375 3.5 4.84375 3.5H4.65625ZM11.7187 3.5C11.7187 3.5 12.7188 2.875 12.7188 2.09375C12.7188 1.80367 12.6035 1.52547 12.3984 1.32035C12.1933 1.11523 11.9151 1 11.625 1C11.0212 1 10.5337 1.49 10.5337 2.09375C10.5337 2.875 11.5313 3.5 11.5313 3.5H11.7187Z" stroke="#FFBA55"/>
</g>
</svg>
