<svg width="43" height="55" viewBox="0 0 43 55" fill="none" xmlns="http://www.w3.org/2000/svg">
<path id="Vector" d="M21.5 34.7368C18.9405 34.7368 16.7649 33.8925 14.9732 32.2039C13.1815 30.5154 12.2857 28.4649 12.2857 26.0526V8.68421C12.2857 6.27193 13.1815 4.22149 14.9732 2.53289C16.7649 0.844298 18.9405 0 21.5 0C24.0595 0 26.2351 0.844298 28.0268 2.53289C29.8185 4.22149 30.7143 6.27193 30.7143 8.68421V26.0526C30.7143 28.4649 29.8185 30.5154 28.0268 32.2039C26.2351 33.8925 24.0595 34.7368 21.5 34.7368ZM18.4286 55V46.0987C13.1048 45.4232 8.70238 43.1798 5.22143 39.3684C1.74048 35.557 0 31.1184 0 26.0526H6.14286C6.14286 30.057 7.64069 33.4709 10.6364 36.2942C13.632 39.1175 17.2532 40.5282 21.5 40.5263C25.7488 40.5263 29.371 39.1146 32.3667 36.2913C35.3624 33.468 36.8592 30.0551 36.8571 26.0526H43C43 31.1184 41.2595 35.557 37.7786 39.3684C34.2976 43.1798 29.8952 45.4232 24.5714 46.0987V55H18.4286Z" fill="white"/>
</svg>
