<svg width="18" height="15" viewBox="0 0 18 15" fill="none" xmlns="http://www.w3.org/2000/svg">
<path d="M1.26171 4.46893L8.10056 1.0499C8.16629 1.01708 8.23876 1 8.31223 1C8.38569 1 8.45816 1.01708 8.52389 1.0499L15.3627 4.46972C15.4414 4.5091 15.5075 4.5696 15.5538 4.64443C15.6 4.71927 15.6245 4.80549 15.6245 4.89345C15.6245 4.9814 15.6 5.06763 15.5538 5.14246C15.5075 5.2173 15.4414 5.27779 15.3627 5.31717L8.52389 8.7362C8.45816 8.76902 8.38569 8.7861 8.31223 8.7861C8.23876 8.7861 8.16629 8.76902 8.10056 8.7362L1.26171 5.31638C1.18306 5.277 1.11692 5.21651 1.0707 5.14167C1.02448 5.06684 1 4.98061 1 4.89266C1 4.8047 1.02448 4.71848 1.0707 4.64364C1.11692 4.56881 1.18306 4.50831 1.26171 4.46893Z" stroke="#758BFF" stroke-width="1.5" stroke-linecap="round" stroke-linejoin="round"/>
<path d="M17.0005 8.05213V5.28784L15.4209 4.49805M2.78418 6.07764V10.352C2.78412 10.6509 2.86884 10.9436 3.02849 11.1962C3.18814 11.4488 3.41618 11.651 3.68613 11.7792L7.63511 13.6542C7.84686 13.7547 8.07834 13.8069 8.31276 13.8069C8.54718 13.8069 8.77865 13.7547 8.9904 13.6542L12.9394 11.7792C13.2093 11.651 13.4374 11.4488 13.597 11.1962C13.7567 10.9436 13.8414 10.6509 13.8413 10.352V6.07764" stroke="#758BFF" stroke-width="1.5" stroke-linecap="round" stroke-linejoin="round"/>
</svg>
