<svg width="24" height="24" viewBox="0 0 24 24" fill="none" xmlns="http://www.w3.org/2000/svg">
<g id="fi_2418174" clip-path="url(#clip0_463_800)">
<g id="Group">
<path id="Vector" d="M23.3835 2.15002C22.8025 1.37975 21.9159 0.93801 20.9511 0.93801H20.5426V0.703641C20.5426 0.315339 20.2278 0.000535155 19.8395 0.000535155C19.4512 0.000535155 19.1364 0.315339 19.1364 0.703641V2.57859C19.1364 2.96689 19.4512 3.2817 19.8395 3.2817C20.2278 3.2817 20.5426 2.96689 20.5426 2.57859V2.34422H20.9511C21.4706 2.34422 21.948 2.58211 22.2608 2.99684C22.5737 3.41158 22.6713 3.93596 22.5285 4.43549L20.6624 10.967C20.1416 12.7897 18.454 14.0626 16.5584 14.0626C14.6628 14.0626 12.9751 12.7896 12.4543 10.967L10.5883 4.43544C10.4455 3.93591 10.5431 3.41154 10.856 2.9968C11.1688 2.58201 11.6462 2.34417 12.1657 2.34417H12.5741V2.57854C12.5741 2.96684 12.8889 3.28165 13.2772 3.28165C13.6655 3.28165 13.9803 2.96684 13.9803 2.57854V0.703594C13.9803 0.315292 13.6655 0.000488281 13.2772 0.000488281C12.8889 0.000488281 12.5741 0.315292 12.5741 0.703594V0.937963H12.1657C11.2009 0.937963 10.3143 1.37975 9.73328 2.14998C9.15223 2.92025 8.97107 3.89405 9.23614 4.82173L11.1023 11.3532C11.4438 12.5485 12.1489 13.5759 13.1413 14.3245C13.354 14.485 13.5758 14.6282 13.8047 14.7558L15.8553 19.5959V20.1033C15.8553 21.4765 14.7382 22.5936 13.365 22.5936C11.9918 22.5936 10.8747 21.4765 10.8747 20.1033V15.2813C10.8747 13.0586 9.06631 11.2502 6.84356 11.2502C4.62081 11.2502 2.81242 13.0586 2.81242 15.2813V16.9458C1.20972 17.2724 0 18.6928 0 20.3906C0 22.329 1.57707 23.9061 3.51553 23.9061C5.45399 23.9061 7.03106 22.329 7.03106 20.3906C7.03106 18.6928 5.82134 17.2724 4.21863 16.9458V15.2813C4.21863 13.834 5.3962 12.6564 6.84356 12.6564C8.29093 12.6564 9.46849 13.834 9.46849 15.2813V20.1033C9.46849 22.2519 11.2165 23.9998 13.365 23.9998C15.5136 23.9998 17.2615 22.2519 17.2615 20.1033V19.5959L19.3122 14.7558C19.541 14.6282 19.7629 14.485 19.9756 14.3245C20.968 13.576 21.673 12.5485 22.0146 11.3532L23.8807 4.82173C24.1458 3.8941 23.9645 2.92025 23.3835 2.15002ZM5.62485 20.3906C5.62485 21.5536 4.67861 22.4999 3.51553 22.4999C2.35245 22.4999 1.40621 21.5536 1.40621 20.3906C1.40621 19.2275 2.35245 18.2812 3.51553 18.2812C4.67861 18.2812 5.62485 19.2275 5.62485 20.3906ZM16.5584 17.6507L15.5998 15.388C15.9137 15.4412 16.2339 15.4688 16.5585 15.4688C16.883 15.4688 17.2032 15.4412 17.5171 15.388L16.5584 17.6507Z" fill="#758BFF"/>
<path id="Vector_2" d="M3.51562 21.0938C3.90395 21.0938 4.21875 20.779 4.21875 20.3906C4.21875 20.0023 3.90395 19.6875 3.51562 19.6875C3.1273 19.6875 2.8125 20.0023 2.8125 20.3906C2.8125 20.779 3.1273 21.0938 3.51562 21.0938Z" fill="#357A7B"/>
</g>
</g>
<defs>
<clipPath id="clip0_463_800">
<rect width="24" height="24" fill="white"/>
</clipPath>
</defs>
</svg>

<svg width="24" height="24" viewBox="0 0 24 24" fill="none" xmlns="http://www.w3.org/2000/svg">
<path d="M23.3835 2.15002C22.8025 1.37975 21.9159 0.93801 20.9511 0.93801H20.5426V0.703641C20.5426 0.315339 20.2278 0.000535155 19.8395 0.000535155C19.4512 0.000535155 19.1364 0.315339 19.1364 0.703641V2.57859C19.1364 2.96689 19.4512 3.2817 19.8395 3.2817C20.2278 3.2817 20.5426 2.96689 20.5426 2.57859V2.34422H20.9511C21.4706 2.34422 21.948 2.58211 22.2608 2.99684C22.5737 3.41158 22.6713 3.93596 22.5285 4.43549L20.6624 10.967C20.1416 12.7897 18.454 14.0626 16.5584 14.0626C14.6628 14.0626 12.9751 12.7896 12.4543 10.967L10.5883 4.43544C10.4455 3.93591 10.5431 3.41154 10.856 2.9968C11.1688 2.58201 11.6462 2.34417 12.1657 2.34417H12.5741V2.57854C12.5741 2.96684 12.8889 3.28165 13.2772 3.28165C13.6655 3.28165 13.9803 2.96684 13.9803 2.57854V0.703594C13.9803 0.315292 13.6655 0.000488281 13.2772 0.000488281C12.8889 0.000488281 12.5741 0.315292 12.5741 0.703594V0.937963H12.1657C11.2009 0.937963 10.3143 1.37975 9.73328 2.14998C9.15223 2.92025 8.97107 3.89405 9.23614 4.82173L11.1023 11.3532C11.4438 12.5485 12.1489 13.5759 13.1413 14.3245C13.354 14.485 13.5758 14.6282 13.8047 14.7558L15.8553 19.5959V20.1033C15.8553 21.4765 14.7382 22.5936 13.365 22.5936C11.9918 22.5936 10.8747 21.4765 10.8747 20.1033V15.2813C10.8747 13.0586 9.06631 11.2502 6.84356 11.2502C4.62081 11.2502 2.81242 13.0586 2.81242 15.2813V16.9458C1.20972 17.2724 0 18.6928 0 20.3906C0 22.329 1.57707 23.9061 3.51553 23.9061C5.45399 23.9061 7.03106 22.329 7.03106 20.3906C7.03106 18.6928 5.82134 17.2724 4.21863 16.9458V15.2813C4.21863 13.834 5.3962 12.6564 6.84356 12.6564C8.29093 12.6564 9.46849 13.834 9.46849 15.2813V20.1033C9.46849 22.2519 11.2165 23.9998 13.365 23.9998C15.5136 23.9998 17.2615 22.2519 17.2615 20.1033V19.5959L19.3122 14.7558C19.541 14.6282 19.7629 14.485 19.9756 14.3245C20.968 13.576 21.673 12.5485 22.0146 11.3532L23.8807 4.82173C24.1458 3.8941 23.9645 2.92025 23.3835 2.15002ZM5.62485 20.3906C5.62485 21.5536 4.67861 22.4999 3.51553 22.4999C2.35245 22.4999 1.40621 21.5536 1.40621 20.3906C1.40621 19.2275 2.35245 18.2812 3.51553 18.2812C4.67861 18.2812 5.62485 19.2275 5.62485 20.3906ZM16.5584 17.6507L15.5998 15.388C15.9137 15.4412 16.2339 15.4688 16.5585 15.4688C16.883 15.4688 17.2032 15.4412 17.5171 15.388L16.5584 17.6507Z" fill="#758BFF"/>
<path d="M3.51562 21.0938C3.90395 21.0938 4.21875 20.779 4.21875 20.3906C4.21875 20.0023 3.90395 19.6875 3.51562 19.6875C3.1273 19.6875 2.8125 20.0023 2.8125 20.3906C2.8125 20.779 3.1273 21.0938 3.51562 21.0938Z" fill="#357A7B"/>
</svg>
